<svg xmlns:xlink="http://www.w3.org/1999/xlink" xmlns="http://www.w3.org/2000/svg" width="256" height="256"
     viewBox="0 0 256 256" fill="none">
    <g clip-path="url(#clip-path-74_1)">
        <path fill="#FFFFFF" d="M0 256L256 256L256 0L0 0L0 256Z">
        </path>
        <rect x="0" y="0" width="256" height="128" fill="#D8C4A0">
        </rect>
        <rect x="0" y="128" width="256" height="128" fill="#F5E0BB">
        </rect>
        <path d="M28 228L128 128L228 128L128 228L28 228Z" fill-rule="evenodd" fill="#241A04">
        </path>
        <path d="M28 128L128 28L228 28L128 128L28 128Z" fill-rule="evenodd" fill="#52452A">
        </path>
        <g>
            <path fill="#000000"
                  d="M-3049.01 2467.94L-3043.48 2467.94L-3043.48 2466.99L-3045.92 2466.99C-3046.36 2466.99 -3046.9 2467.04 -3047.36 2467.08C-3045.29 2465.12 -3043.9 2463.33 -3043.9 2461.57C-3043.9 2460.01 -3044.9 2458.99 -3046.47 2458.99C-3047.58 2458.99 -3048.35 2459.49 -3049.06 2460.27L-3048.43 2460.9C-3047.93 2460.31 -3047.32 2459.88 -3046.6 2459.88C-3045.51 2459.88 -3044.98 2460.61 -3044.98 2461.62C-3044.98 2463.13 -3046.25 2464.88 -3049.01 2467.29L-3049.01 2467.94ZM-3039.27 2468.1C-3037.9 2468.1 -3036.74 2466.95 -3036.74 2465.24C-3036.74 2463.39 -3037.7 2462.48 -3039.19 2462.48C-3039.87 2462.48 -3040.64 2462.88 -3041.18 2463.54C-3041.13 2460.81 -3040.13 2459.89 -3038.91 2459.89C-3038.38 2459.89 -3037.85 2460.15 -3037.52 2460.56L-3036.89 2459.89C-3037.39 2459.36 -3038.04 2458.99 -3038.96 2458.99C-3040.66 2458.99 -3042.21 2460.3 -3042.21 2463.74C-3042.21 2466.65 -3040.95 2468.1 -3039.27 2468.1ZM-3041.15 2464.41C-3040.58 2463.6 -3039.91 2463.3 -3039.36 2463.3C-3038.3 2463.3 -3037.78 2464.05 -3037.78 2465.24C-3037.78 2466.44 -3038.43 2467.23 -3039.27 2467.23C-3040.37 2467.23 -3041.03 2466.24 -3041.15 2464.41ZM-3035.17 2467.94L-3030.34 2467.94L-3030.34 2467.03L-3032.1 2467.03L-3032.1 2459.15L-3032.95 2459.15C-3033.43 2459.42 -3033.99 2459.62 -3034.77 2459.77L-3034.77 2460.47L-3033.2 2460.47L-3033.2 2467.03L-3035.17 2467.03L-3035.17 2467.94ZM-3029.51 2467.94L-3028.4 2467.94L-3027.54 2465.25L-3024.33 2465.25L-3023.49 2467.94L-3022.31 2467.94L-3025.3 2459.15L-3026.54 2459.15L-3029.51 2467.94ZM-3027.27 2464.38L-3026.84 2463.02C-3026.52 2462.02 -3026.24 2461.08 -3025.96 2460.04L-3025.91 2460.04C-3025.62 2461.06 -3025.35 2462.02 -3025.02 2463.02L-3024.6 2464.38L-3027.27 2464.38ZM-3018.93 2468.1C-3017.26 2468.1 -3016.19 2466.58 -3016.19 2463.51C-3016.19 2460.47 -3017.26 2458.99 -3018.93 2458.99C-3020.61 2458.99 -3021.67 2460.47 -3021.67 2463.51C-3021.67 2466.58 -3020.61 2468.1 -3018.93 2468.1ZM-3018.93 2467.21C-3019.93 2467.21 -3020.61 2466.09 -3020.61 2463.51C-3020.61 2460.95 -3019.93 2459.85 -3018.93 2459.85C-3017.93 2459.85 -3017.25 2460.95 -3017.25 2463.51C-3017.25 2466.09 -3017.93 2467.21 -3018.93 2467.21ZM-3012.27 2468.1C-3010.6 2468.1 -3009.53 2466.58 -3009.53 2463.51C-3009.53 2460.47 -3010.6 2458.99 -3012.27 2458.99C-3013.95 2458.99 -3015.01 2460.47 -3015.01 2463.51C-3015.01 2466.58 -3013.95 2468.1 -3012.27 2468.1ZM-3012.27 2467.21C-3013.27 2467.21 -3013.95 2466.09 -3013.95 2463.51C-3013.95 2460.95 -3013.27 2459.85 -3012.27 2459.85C-3011.27 2459.85 -3010.59 2460.95 -3010.59 2463.51C-3010.59 2466.09 -3011.27 2467.21 -3012.27 2467.21Z">
            </path>
        </g>
    </g>
    <defs>
        <clipPath id="clip-path-74_1">
            <path d="M0 256L256 256L256 0L0 0L0 256Z" fill="white"/>
        </clipPath>
    </defs>
</svg>
